PathFileType	4	(X/Y/Z)	 s03c0103.trc
DataRate	CameraRate	NumFrames	NumMarkers	Units	OrigDataRate	OrigDataStartFrame	OrigNumFrames
200	200	5	50	mm	200	1501	2000
Frame#	Time	racr			lacr			c7			jug			rlel			rdr			llel			ldr			s2			lic			ric			lasi			rasi			rpsi			lpsi			rgt			lgt			rth1			rth2			rth3			rth4			rlfc			rmfc			rsh1			rsh2			rsh3			rsh4			rlmal			rcal			rtoe			rmt5			rmt1			lth1			lth2			lth4			lth3			llfc			lmfc			lsh1			lsh2			lsh3			lsh4			llmal			lcal			ltoe			lmt1			lmt5			SBIKE			LBIKE			RBIKE			
		X1	Y1	Z1	X2	Y2	Z2	X3	Y3	Z3	X4	Y4	Z4	X5	Y5	Z5	X6	Y6	Z6	X7	Y7	Z7	X8	Y8	Z8	X9	Y9	Z9	X10	Y10	Z10	X11	Y11	Z11	X12	Y12	Z12	X13	Y13	Z13	X14	Y14	Z14	X15	Y15	Z15	X16	Y16	Z16	X17	Y17	Z17	X18	Y18	Z18	X19	Y19	Z19	X20	Y20	Z20	X21	Y21	Z21	X22	Y22	Z22	X23	Y23	Z23	X24	Y24	Z24	X25	Y25	Z25	X26	Y26	Z26	X27	Y27	Z27	X28	Y28	Z28	X29	Y29	Z29	X30	Y30	Z30	X31	Y31	Z31	X32	Y32	Z32	X33	Y33	Z33	X34	Y34	Z34	X35	Y35	Z35	X36	Y36	Z36	X37	Y37	Z37	X38	Y38	Z38	X39	Y39	Z39	X40	Y40	Z40	X41	Y41	Z41	X42	Y42	Z42	X43	Y43	Z43	X44	Y44	Z44	X45	Y45	Z45	X46	Y46	Z46	X47	Y47	Z47	X48	Y48	Z48	X49	Y49	Z49	X50	Y50	Z50	
1501	7.5050	424.612085	1391.684905	-43.288528	481.889277	1399.782950	-345.703973	394.116528	1487.323385	-198.747128	389.923638	1311.387798	-208.939795	480.616810	1132.100711	41.594193	715.870653	957.689222	-28.333018	555.297893	1160.170437	-463.215511	746.650173	926.508473	-413.052012	-118.814036	1210.777461	-284.696778	73.654045	1235.833696	-443.269573	9.997754	1263.572502	-83.310689	85.208881	1165.922092	-403.205328	52.172239	1191.815684	-121.430831	-101.262223	1268.798941	-245.732842	-85.010673	1261.154080	-324.267666	-9.992045	1192.087936	-71.433289	2.124705	1105.458054	-462.285462	125.345148	1121.494859	-42.711421	214.394767	1123.529036	-40.970143	291.219390	1084.675016	-36.680125	222.665788	1155.201921	-59.953911	411.528586	1027.632978	-51.105569	427.339989	1006.760259	-183.360677	344.021608	878.874912	-34.955186	322.678029	793.064426	-46.636918	260.919419	729.958334	-48.932318	350.863655	779.597736	-68.543111	193.129110	610.609974	-67.262220	121.776763	577.351016	-107.691605	421.248033	496.740569	-114.991296	303.228009	509.472998	-43.185976	329.606508	519.647898	-155.425570	81.976020	971.577104	-488.417290	146.870963	914.918391	-498.818841	177.801454	935.239022	-494.506054	177.105404	830.790017	-491.436036	263.446126	728.724305	-475.192469	276.781269	721.022074	-351.886524	194.485815	570.763164	-482.668140	193.574274	487.861878	-460.881761	147.840510	411.635523	-445.833655	227.822671	481.938374	-442.310080	108.065316	294.967267	-417.028340	40.857432	281.000567	-366.901768	317.106044	144.655616	-355.580751	229.190108	180.220961	-315.026117	199.824733	168.103105	-432.319559	-217.747993	945.604324	-237.235887	-8.111993	83.818620	-437.360116	-14.324913	82.153913	-36.915638	
1502	7.5100	424.145310	1391.740094	-42.539657	482.109965	1399.857677	-344.729563	394.012908	1487.329762	-197.947158	389.871560	1311.395841	-208.170739	480.185666	1132.162070	42.113266	715.714300	957.892049	-28.240468	554.902118	1160.178119	-462.775150	746.687597	926.724378	-413.088925	-119.012680	1211.193892	-284.371140	73.543218	1236.218501	-443.210587	9.310261	1264.116767	-83.144166	85.037887	1166.247154	-403.137950	52.283164	1191.768125	-120.944305	-101.184505	1268.808389	-245.533704	-85.609168	1261.711382	-323.683051	-10.663830	1191.089528	-71.406711	2.219567	1106.315558	-462.224031	124.793712	1119.244125	-42.380747	213.866378	1120.560325	-40.443845	289.985490	1080.983513	-37.108897	222.436138	1152.366134	-59.023191	411.101456	1022.955077	-52.069217	426.144234	1002.806077	-183.021638	344.920223	873.239677	-34.508618	325.122258	787.031140	-45.768804	264.260366	723.089794	-48.104436	353.276192	774.042170	-67.935670	198.691865	602.416147	-66.256115	127.732695	566.930152	-106.246943	429.665074	496.841313	-114.793234	311.595862	504.934058	-42.077120	337.083466	516.437931	-154.726543	82.999051	973.706655	-488.771734	148.441366	917.733384	-499.343755	179.137449	938.324045	-495.079679	179.458392	833.873469	-492.653380	266.137151	731.910047	-477.039751	280.169665	724.158527	-353.774583	194.866442	574.753825	-483.747150	192.505930	491.960764	-461.474260	145.331462	416.689311	-446.147168	226.532105	485.633001	-442.851954	103.463305	301.525233	-416.751867	35.890063	289.845444	-366.833920	307.593373	144.654097	-355.393623	220.912292	182.775404	-314.864114	191.317397	172.135105	-432.182188	-217.770034	945.592730	-237.239348	-8.101653	83.826550	-437.352438	-14.319140	82.152815	-36.899950	
1503	7.5150	423.947781	1391.764005	-42.052111	482.145217	1399.987787	-344.172222	393.946334	1487.362831	-197.426868	389.836967	1311.431619	-207.691101	480.017951	1132.208849	42.052882	715.507455	958.016552	-28.220285	554.593699	1160.168267	-462.281100	746.248373	926.407918	-412.872600	-119.188002	1211.350605	-284.026021	73.330037	1236.657323	-443.064576	8.854042	1264.255607	-82.848578	84.849923	1166.636763	-403.071282	52.461189	1191.642012	-120.361912	-101.172891	1268.703726	-245.145029	-85.759797	1261.827900	-323.418069	-11.137760	1189.727349	-71.225046	2.281681	1107.204108	-462.142952	124.243708	1116.439325	-41.865830	213.325054	1116.865688	-39.729612	289.422984	1076.558522	-35.995390	222.288948	1148.790243	-57.805051	410.101438	1018.227619	-52.958477	424.854837	997.877257	-182.422016	345.571056	866.624974	-33.822731	327.179144	780.134892	-45.001388	267.279661	715.184384	-47.336865	355.442040	767.518109	-67.232306	204.112463	593.213750	-65.244248	133.806301	555.432897	-104.935812	437.771729	496.111189	-114.547511	319.736442	499.495607	-40.937595	344.473258	512.170426	-153.874844	84.123329	976.014328	-488.895858	150.072432	920.692286	-499.663832	180.511993	941.608360	-495.591748	181.911034	837.143065	-493.728075	268.960818	735.318874	-479.010780	283.784726	727.568441	-355.629301	195.465055	579.043280	-484.781223	191.569797	496.386090	-462.048275	143.021106	422.036943	-446.421850	225.404543	489.595510	-443.288904	99.006536	308.376999	-416.706905	31.013346	298.799872	-366.387992	298.159789	145.335734	-355.296750	212.898287	186.167827	-314.828271	182.971630	176.755637	-431.991997	-217.769404	945.579780	-237.225992	-8.099629	83.845488	-437.354091	-14.313844	82.149768	-36.914899	
1504	7.5200	424.057393	1391.797738	-41.821600	482.081544	1400.164798	-343.941057	393.931456	1487.444183	-197.109669	389.890554	1311.517093	-207.452695	479.898289	1132.212943	42.180542	715.294947	958.040796	-28.211013	554.190180	1160.137511	-461.734046	746.088989	926.334155	-412.728298	-119.408738	1211.438718	-283.508285	74.323411	1238.209563	-447.437618	8.525625	1263.957723	-82.367350	84.432584	1167.166259	-402.827340	52.704279	1191.439097	-119.687027	-101.283037	1268.528912	-244.652627	-85.692666	1262.177374	-322.958465	-11.600707	1188.217615	-70.901266	2.290899	1108.083970	-462.001086	123.734897	1113.074635	-41.187149	212.786766	1112.422239	-38.767771	288.372481	1071.332071	-35.316671	222.173024	1144.580218	-56.322558	408.832149	1012.038724	-52.657483	423.539850	992.016285	-181.567998	346.062240	858.978095	-32.868045	329.077299	772.174546	-44.122602	270.155690	706.315716	-46.514744	357.788437	760.058132	-66.075317	209.426483	583.154364	-64.437440	139.814329	543.071696	-103.776005	445.439990	494.692393	-114.008860	327.703976	493.358104	-39.881325	351.915543	507.098826	-153.265962	85.289312	978.421563	-488.851080	151.776769	923.789132	-499.925784	181.954518	944.961332	-496.040839	184.504458	840.566409	-494.590457	272.030359	738.902713	-480.854580	287.428137	731.141150	-357.373921	196.241133	583.481598	-485.793242	190.957856	501.837015	-463.755858	140.814331	427.719845	-446.623496	224.238028	493.861780	-443.322484	94.632694	315.609618	-416.293681	26.382069	308.072657	-365.903383	288.005551	144.952670	-352.633607	204.940078	189.985006	-314.726148	174.808738	181.921959	-431.800902	-217.777707	945.555943	-237.176506	-8.100797	83.823976	-437.355533	-14.318512	82.134315	-36.905965	
1505	7.5250	424.425861	1391.812285	-41.838660	481.919570	1400.417379	-343.926606	393.948367	1487.577020	-197.017394	390.029723	1311.656249	-207.495484	479.846375	1132.229655	42.336036	715.096617	957.971631	-28.220861	553.845102	1160.153696	-461.095276	745.942545	926.315999	-412.509791	-119.658301	1211.413201	-282.835313	72.561950	1237.451801	-442.363555	8.396305	1263.231446	-81.633752	83.951182	1167.666431	-402.551337	53.010403	1191.161130	-118.923024	-101.453714	1268.264342	-243.981416	-85.511671	1261.801798	-322.623703	-11.953218	1186.429569	-70.453164	2.236669	1108.950564	-461.823787	123.200012	1109.279014	-40.412749	212.234400	1107.383467	-37.733843	287.392738	1065.381645	-34.166923	222.123673	1139.699122	-54.698002	407.274858	1004.877254	-50.781974	422.104404	985.240504	-180.531598	346.456346	850.393513	-31.758244	330.917484	763.277631	-43.105887	273.052519	696.336251	-45.681590	359.435398	751.683581	-65.541365	214.612024	572.252624	-63.789551	145.775208	530.180296	-103.084299	452.995432	492.059459	-113.388025	335.262584	486.514079	-39.050582	358.889190	501.907985	-152.496288	86.537658	980.852839	-488.675100	153.602234	926.947780	-500.008042	183.453064	948.455082	-496.350086	187.202710	844.076995	-495.332521	275.269763	742.797844	-482.671221	291.159756	734.930414	-359.111392	197.027332	588.207334	-486.752307	190.228123	506.681372	-464.224624	138.717177	433.693537	-446.754708	223.305973	498.202992	-443.580458	90.295737	323.286156	-415.888097	21.932072	317.573979	-365.364023	278.992466	146.978493	-352.599749	197.123124	194.465959	-314.435390	166.870818	187.619234	-431.537905	-217.747565	945.523402	-237.124405	-8.094134	83.819789	-437.359635	-14.302907	82.046306	-36.934071	
